<svg xmlns="http://www.w3.org/2000/svg" xmlns:xlink="http://www.w3.org/1999/xlink" width="581" height="307" viewBox="0 0 581 307">
  <defs>
    <clipPath id="clip-Logo2-1">
      <rect width="581" height="307"/>
    </clipPath>
  </defs>
  <g id="Logo2-1" clip-path="url(#clip-Logo2-1)">
    <rect width="581" height="307" fill="#fff"/>
    <g id="Group_3" data-name="Group 3" transform="translate(10.984 75.5)">
      <path id="Path_13" data-name="Path 13" d="M558.606,69.5l-52.886,86H241.993l63.759-86Z" fill="#3949ab" stroke="#000" stroke-width="1"/>
      <path id="Path_14" data-name="Path 14" d="M313.062,124c.188,8.844,7.5,14.219,18.282,14.219,11.844,0,19.75-6.063,19.75-15.313,0-6.281-3.469-10-11.219-12.281l-4.937-1.437c-3.876-1.157-5.438-2.813-5.438-5.032,0-2.781,3-4.812,6.812-4.812,4.25,0,7.376,2.406,7.657,5.687h10.593c-.062-8.468-7.218-14.343-17.843-14.343C325.938,90.688,318,96.938,318,105.5c0,6.094,3.938,10.562,10.844,12.625l4.875,1.469c4.406,1.344,6,2.625,6,4.875,0,3.031-3.125,5.062-7.594,5.062-4.187,0-7.719-2.219-8.125-5.531Zm64.75,13,7.626-35.875h12.968l1.969-9.219H362.938l-1.969,9.219h12.969L366.344,137Zm43.094,1.219c14.032,0,24.813-11.438,24.813-28.157,0-11-7.375-19.374-20.094-19.374-14.031,0-24.844,11.5-24.844,28.157C400.781,129.875,408.438,138.219,420.906,138.219Zm4.375-37.75c5.281,0,8.781,4.062,8.781,10.406,0,9.969-5.75,17.656-12.812,17.656-5.312,0-8.781-4.125-8.781-10.469C412.469,108.219,418.219,100.469,425.281,100.469Zm33.688-8.563L449.406,137h11.469l2.813-13.219h7.562c12.25,0,20.281-7,20.281-18.281,0-8.187-5.937-13.594-15.75-13.594Zm9.593,8.813h4.844c4.188,0,6.594,1.937,6.594,5.812,0,5.063-3.5,8.594-8.781,8.594H465.5Z"/>
      <path id="Path_15" data-name="Path 15" d="M316.016.5l-62.77,86H1.016L67.246.5Z" fill="#d9d9d9" stroke="#000" stroke-width="1"/>
      <path id="Path_16" data-name="Path 16" d="M109.344,67.156c14.031,0,24.625-11.562,24.625-28.25,0-10.937-7.469-19.156-19.438-19.156C100.5,19.75,89.844,31.406,89.844,48,89.844,58.938,97.531,67.156,109.344,67.156Zm4.812-38.937c6.063,0,10.125,4.531,10.125,11.406,0,10.875-6.375,19.094-14.562,19.094-6.125,0-10.188-4.531-10.188-11.406C99.531,36.563,106,28.219,114.156,28.219ZM147.031,66l6.25-28.812h.563L168.938,66h7.156l9.594-45.094h-9.157l-6.312,29.031h-.563L154.688,20.906h-7.219L137.875,66Zm71.563-8.062H198.188l2.437-10.969h19.219l1.562-7.469h-19.25L204.5,28.969h20.375l1.656-8.063H196.656L187.062,66h29.907Z"/>
      <path id="Path_17" data-name="Path 17" d="M109.344,68.156c14.695,0,25.625-12.129,25.625-29.25h-2c0,16.254-10.258,27.25-23.625,27.25Zm25.625-29.25a20.161,20.161,0,0,0-5.518-14.381c-3.571-3.634-8.7-5.776-14.92-5.776v2c5.747,0,10.339,1.968,13.494,5.177a18.171,18.171,0,0,1,4.944,12.979ZM114.531,18.75C99.837,18.75,88.844,30.972,88.844,48h2c0-16.159,10.319-27.25,23.687-27.25ZM88.844,48a20.081,20.081,0,0,0,5.611,14.384,20.519,20.519,0,0,0,14.89,5.772v-2a18.525,18.525,0,0,1-13.47-5.181A18.085,18.085,0,0,1,90.844,48Zm25.312-18.781a8.54,8.54,0,0,1,6.589,2.79,11.237,11.237,0,0,1,2.536,7.616h2a13.222,13.222,0,0,0-3.042-8.946,10.536,10.536,0,0,0-8.083-3.46Zm9.125,10.406c0,10.586-6.158,18.094-13.562,18.094v2c8.97,0,15.562-8.93,15.562-20.094ZM109.719,57.719a8.622,8.622,0,0,1-6.645-2.792,11.2,11.2,0,0,1-2.543-7.615h-2a13.187,13.187,0,0,0,3.052,8.948,10.619,10.619,0,0,0,8.136,3.458Zm-9.188-10.406c0-10.458,6.25-18.094,13.625-18.094v-2c-8.937,0-15.625,9.052-15.625,20.094ZM147.031,66v1h.807l.171-.788Zm6.25-28.812v-1h-.806l-.171.788Zm.563,0,.886-.464-.281-.536h-.605ZM168.938,66l-.886.464.28.536h.606Zm7.156,0v1h.809l.169-.792Zm9.594-45.094.978.208.257-1.208h-1.235Zm-9.157,0v-1h-.806l-.171.788Zm-6.312,29.031v1h.806l.171-.787Zm-.563,0-.889.458.28.542h.609ZM154.688,20.906l.888-.458-.279-.542h-.609Zm-7.219,0v-1h-.81l-.168.792ZM137.875,66l-.978-.208L136.64,67h1.235Zm10.134.212,6.25-28.812-1.955-.424-6.25,28.813Zm5.272-28.024h.563v-2h-.563Zm-.323-.536,15.094,28.812,1.771-.928L154.73,36.723ZM168.938,67h7.156V65h-7.156Zm8.134-.792,9.594-45.094-1.957-.416-9.593,45.094Zm8.616-46.3h-9.157v2h9.157Zm-10.134.788-6.312,29.031,1.954.425,6.312-29.031Zm-5.335,28.244h-.563v2h.563Zm.326.542L155.576,20.448l-1.777.917L168.767,50.4ZM154.688,19.906h-7.219v2h7.219Zm-8.2.792L136.9,65.792l1.956.416,9.594-45.094ZM137.875,67h9.156V65h-9.156Zm80.719-9.062.98.2.241-1.2h-1.221Zm-20.406,0-.977-.217-.27,1.217h1.247Zm2.437-10.969v-1h-.8l-.174.783Zm19.219,0v1h.812l.167-.8Zm1.562-7.469.979.2.252-1.2h-1.231Zm-19.25,0-.976-.217-.271,1.217h1.247ZM204.5,28.969v-1h-.8l-.174.783Zm20.375,0v1h.815l.165-.8Zm1.656-8.063.98.2.247-1.2h-1.227Zm-29.875,0v-1h-.809l-.169.792ZM187.062,66l-.978-.208L185.827,67h1.235Zm29.907,0v1h.818l.162-.8Zm1.625-9.062H198.188v2h20.406Zm-19.43,1.217L201.6,47.186l-1.952-.434-2.438,10.969Zm1.461-10.186h19.219v-2H200.625Zm20.2-.8,1.562-7.469-1.958-.41-1.562,7.469Zm.583-8.674h-19.25v2h19.25Zm-18.274,1.217,2.344-10.531-1.952-.435L201.18,39.283Zm1.368-9.748h20.375v-2H204.5Zm21.355-.8,1.656-8.062-1.959-.4L223.9,28.767Zm.676-9.264H196.656v2h29.875Zm-30.853.792-9.594,45.094,1.957.416,9.593-45.094ZM187.062,67h29.907V65H187.062Zm30.887-.8,1.625-8.062-1.961-.4L215.988,65.8Z"/>
    </g>
  </g>
</svg>
